<svg width="2500" height="439" viewBox="0 0 2500 439" fill="none" xmlns="http://www.w3.org/2000/svg">
<g clip-path="url(#clip0_2976_17385)">
<path d="M73.2 67.7L190.2 0L307.2 67.7L263.3 91.5L190.2 49.4L115.2 91.5L73.2 67.7ZM305.4 151.8L263.3 128L190.2 170.1L115.2 128L73.1 151.8V201.2L146.3 243.3V329.3L188.4 354.9L230.5 329.3V245.2L303.7 203.1V151.9H305.4V151.8ZM305.4 287.2V237.8L263.3 263.4V310.9L305.4 287.2ZM336.5 303.6L263.4 345.7V395.1L380.5 327.4V192.1L336.6 219.5L336.5 303.6ZM294.4 109.8L336.5 135.4V184.8L378.6 159.2V109.8L336.5 84.2L294.4 109.8ZM146.3 364V413.4L188.4 439L230.5 413.4V364L188.4 389.6L146.3 364ZM73.1 287.2L115.2 311V261.6L73.1 236V287.2ZM146.3 109.8L188.4 135.4L232.3 109.8L190.2 84.2L146.3 109.8ZM42.1 135.4L86 109.8L42.1 84.2L0 109.8V159.2L42.1 184.8V135.4ZM42.1 219.5L0 193.9V329.2L117.1 396.9V347.5L43.9 305.4V219.4L42.1 219.5Z" fill="white"/>
<path d="M716.9 276.2C716.9 243.3 698.6 226.8 671.2 215.8C689.5 206.7 704.1 190.2 704.1 162.8C704.1 124.4 673 98.8 623.6 98.8H510.2V343.9H627.2C680.3 342 716.9 320.1 716.9 276.2ZM649.2 171.9C649.2 190.2 634.6 197.5 610.8 197.5H561.4V144.5H614.4C638.3 144.5 649.2 153.7 649.2 171.9ZM663.9 268.9C663.9 287.2 649.3 296.3 625.5 296.3H561.5V243.3H623.7C651.1 241.4 663.9 252.4 663.9 268.9Z" fill="white"/>
<path d="M982.1 342V98.8H929V248.8L813.8 98.8H764.5V343.9H817.5V188.4L936.4 343.9H982.1V342Z" fill="white"/>
<path d="M1250.9 276.2C1250.9 243.3 1232.6 226.8 1205.2 215.8C1223.5 206.7 1238.1 190.2 1238.1 162.8C1238.1 124.4 1207 98.8 1157.6 98.8H1044.2V343.9H1161.2C1214.3 342 1250.9 320.1 1250.9 276.2ZM1185.1 171.9C1185.1 190.2 1170.5 197.5 1146.7 197.5H1097.3V144.5H1150.3C1172.3 144.5 1185.1 153.7 1185.1 171.9ZM1197.9 268.9C1197.9 287.2 1183.3 296.3 1159.5 296.3H1095.5V243.3H1157.7C1185.1 241.4 1197.9 252.4 1197.9 268.9Z" fill="white"/>
<path d="M1574.6 300L1547.2 272.6C1527.1 292.7 1507 303.7 1477.7 303.7C1430.1 303.7 1397.2 265.3 1397.2 215.9C1397.2 168.3 1432 130 1477.7 130C1505.1 130 1527.1 142.8 1545.4 161.1L1572.8 128.2C1549 106.3 1521.6 89.8 1477.7 89.8C1404.5 89.8 1351.5 146.5 1351.5 216C1351.5 287.3 1404.5 342.2 1475.9 342.2C1521.6 342 1549 325.6 1574.6 300Z" fill="white"/>
<path d="M1783.1 236V338.4H1825.2V93.3H1783.1V195.7H1666.1V93.3H1624V338.4H1666.1V236H1783.1Z" fill="white"/>
<path d="M2019 93.3H1978.8L1870.9 340.2H1914.8L1940.4 281.7H2055.6L2081.2 340.2H2126.9L2019 93.3ZM2041 241.4H1956.9L1999 144.5L2041 241.4Z" fill="white"/>
<path d="M2174.5 93.3V338.4H2216.5V93.3H2174.5Z" fill="white"/>
<path d="M2456.1 263.4L2324.4 95.1H2286V340.2H2328.1V164.6L2463.4 338.4H2500V93.3H2457.9V263.4H2456.1Z" fill="white"/>
</g>
<defs>
<clipPath id="clip0_2976_17385">
<rect width="2500" height="439" fill="white"/>
</clipPath>
</defs>
</svg>
