<svg width="582" height="101" viewBox="0 0 582 101" fill="none" xmlns="http://www.w3.org/2000/svg">
<path d="M86.1626 60.2868C84.4184 61.3527 82.3835 61.5465 80.8332 60.6744C78.8952 59.5116 77.7324 56.8953 77.7324 53.3101V42.3605C77.7324 37.1279 75.6975 33.3488 72.2092 32.3798C66.2983 30.6356 61.841 37.9031 60.1937 40.6163L49.7286 57.3798V36.7403C49.6317 31.9922 48.0813 29.1822 45.1743 28.3101C43.2364 27.7287 40.3294 28.0194 37.5193 32.283L14.1667 69.686C11.0659 63.7752 9.41861 57.186 9.41861 50.5C9.41861 27.9225 27.5387 9.60852 49.7286 9.60852C71.9185 9.60852 90.0386 27.9225 90.0386 50.5V50.5969V50.6938C90.2324 55.0543 88.8758 58.5426 86.1626 60.2868ZM98.9533 50.5V50.4031V50.3062C98.8564 22.8837 76.7634 0.5 49.7286 0.5C22.5969 0.5 0.503906 22.8837 0.503906 50.5C0.503906 78.0194 22.5969 100.5 49.7286 100.5C62.2286 100.5 74.0502 95.7519 83.1587 87.1279C84.9998 85.3837 85.0967 82.5736 83.3525 80.7326C81.7053 78.8915 78.8952 78.7946 77.0541 80.4418C77.0541 80.4418 77.0541 80.4419 76.9572 80.5388C69.5929 87.5155 59.7092 91.4884 49.5348 91.4884C37.6162 91.4884 26.9573 86.2558 19.593 77.9225L40.6201 44.2016V59.8023C40.6201 67.2636 43.5271 69.686 45.9495 70.3643C48.372 71.0426 52.0542 70.5581 56.027 64.2597L67.558 45.5581C67.9456 44.9767 68.2363 44.3953 68.6239 44.0077V53.5039C68.6239 60.4806 71.434 66.1008 76.2789 68.8139C80.6394 71.3333 86.1626 71.0426 90.7169 68.2325C96.337 64.5504 99.3409 58.155 98.9533 50.5ZM167.558 33.4457C168.721 34.124 169.786 35.7713 169.786 37.2248C169.786 39.5504 167.848 41.4884 165.62 41.4884C165.038 41.4884 164.554 41.2946 164.069 41.1977C161.453 39.2597 158.159 38 154.67 38C146.434 38 140.814 44.6861 140.814 53.0194C140.814 61.3527 146.531 67.9419 154.67 67.9419C158.74 67.9419 162.422 66.2946 165.135 63.6783C165.814 63.1938 166.686 62.9031 167.558 62.9031C169.786 62.9031 171.531 64.6473 171.531 66.876C171.531 68.3294 170.659 69.5891 169.593 70.2674C165.62 73.6589 160.29 75.8876 154.767 75.8876C142.17 75.8876 131.899 65.5194 131.899 52.7287C131.899 39.938 142.17 29.5698 154.767 29.5698C159.418 29.4729 163.876 30.9264 167.558 33.4457ZM190.62 43.1357C199.244 43.1357 206.414 50.4031 206.414 59.4147C206.414 68.3295 199.147 75.9845 190.62 75.9845C181.608 75.9845 174.147 68.4264 174.147 59.4147C174.147 50.4031 181.608 43.1357 190.62 43.1357ZM190.523 67.9419C194.302 67.9419 197.5 64.3566 197.5 59.5116C197.5 54.6667 194.302 51.5659 190.523 51.5659C186.453 51.5659 183.062 54.5698 183.062 59.5116C183.062 64.2597 186.453 67.9419 190.523 67.9419ZM211.841 70.9457V48.0775C211.841 45.5581 213.779 43.5232 216.298 43.5232C218.72 43.5232 220.755 45.5581 220.755 48.0775V70.9457C220.755 73.4651 218.72 75.5 216.298 75.5C213.875 75.5 211.841 73.3682 211.841 70.9457ZM211.162 34.8992C211.162 31.8953 213.488 29.5698 216.298 29.5698C219.205 29.5698 221.53 31.9922 221.53 34.8992C221.53 37.8062 219.205 40.1318 216.298 40.1318C213.391 40.0349 211.162 37.7093 211.162 34.8992ZM237.81 58.5426V70.9457C237.81 73.4651 235.775 75.5 233.352 75.5C230.93 75.5 228.895 73.4651 228.895 70.9457V47.0116C228.895 45.0736 230.445 43.5232 232.383 43.5232C234.321 43.5232 235.775 45.1705 235.775 47.0116C239.36 43.6201 242.558 43.1357 245.561 43.1357C254.476 43.1357 258.449 49.8217 258.449 57.4768V70.9457C258.449 73.4651 256.414 75.5 253.992 75.5C251.569 75.5 249.534 73.4651 249.534 70.9457V58.5426C249.534 54.6667 249.05 51.3721 243.43 51.3721C239.457 51.3721 237.81 54.6667 237.81 58.5426ZM287.325 63.2907C286.259 63.2907 285.581 62.8062 284.999 62.1279L274.631 50.8876V70.9457C274.631 73.4651 272.596 75.5 270.174 75.5C267.751 75.5 265.716 73.4651 265.716 70.9457V31.2171C266.007 30.5388 266.685 30.0543 267.364 30.0543C268.139 30.0543 268.817 30.7326 269.302 31.2171L285.871 49.8217C286.356 50.4031 286.937 50.6938 287.325 50.6938C287.616 50.6938 288.294 50.4031 288.778 49.8217L305.348 31.2171C305.833 30.7326 306.414 30.0543 307.286 30.0543C308.061 30.0543 308.74 30.5388 308.933 31.2171V70.9457C308.933 73.4651 306.995 75.5 304.476 75.5C302.054 75.5 300.019 73.4651 300.019 70.9457V50.8876L289.65 62.1279C288.875 62.8062 288.197 63.2907 287.325 63.2907ZM330.154 67.9419C334.127 67.9419 337.519 64.3566 337.519 59.5116C337.519 54.6667 334.03 51.469 330.154 51.469C326.278 51.469 323.081 54.7636 323.081 59.5116C323.081 64.1628 326.181 67.9419 330.154 67.9419ZM339.65 72.0116L339.457 70.9457C337.712 74.3372 332.189 75.8876 328.701 75.8876C320.367 75.8876 314.166 68.3295 314.166 59.3178C314.166 50.4031 320.464 43.0387 329.185 43.0387C330.639 43.0387 335.677 43.4264 339.553 47.9806L339.747 46.9147C339.747 44.9767 341.201 43.4264 343.139 43.4264C345.077 43.4264 346.627 45.0736 346.627 46.9147V71.9147C346.627 73.8527 345.077 75.4031 343.139 75.4031C341.104 75.5 339.65 73.8527 339.65 72.0116ZM371.143 51.3721H370.174C364.553 51.6628 363.487 54.8605 363.487 58.5426V70.9457C363.487 73.4651 361.453 75.5 359.03 75.5C356.608 75.5 354.573 73.4651 354.573 70.9457V47.0116C354.573 45.0736 356.123 43.5232 358.061 43.5232C359.999 43.5232 361.453 45.1705 361.453 47.0116C364.747 43.9108 367.46 43.2326 370.174 43.1357H371.046C373.177 43.1357 375.115 44.9768 375.115 47.3023C375.212 49.4341 373.274 51.3721 371.143 51.3721ZM405.542 68.8139C405.929 69.4922 406.22 70.1705 406.22 70.9457C406.22 73.2713 404.088 75.4031 401.763 75.4031C400.212 75.4031 398.856 74.2403 397.79 72.8837L387.518 60.9651V70.8488C387.518 73.3682 385.484 75.4031 383.061 75.4031C380.639 75.4031 378.604 73.3682 378.604 70.8488V34.5116C378.604 31.9922 380.542 29.9574 383.061 29.9574C385.58 29.9574 387.518 31.9922 387.518 34.5116V57.186L397.79 45.8488C398.856 44.6861 400.115 43.4264 401.666 43.4264C403.894 43.4264 405.929 45.4613 405.929 47.7868C405.929 48.4651 405.735 49.2403 405.348 49.8217L397.208 58.7364L405.542 68.8139ZM422.983 51.469C420.561 51.469 416.588 52.7287 416.588 56.5078H429.476C429.379 52.7287 425.309 51.469 422.983 51.469ZM434.611 62.2248H416.588C416.588 67.5543 421.724 68.4264 423.952 68.4264C425.6 68.4264 427.925 68.1356 429.766 67.2636C430.348 66.876 431.22 66.5853 432.092 66.5853C434.03 66.5853 435.677 68.2325 435.677 70.2674C435.677 71.624 434.805 72.7868 433.739 73.4651C431.026 75.5 427.441 75.9845 424.049 75.9845C415.038 75.9845 407.577 71.1395 407.577 59.8023C407.577 50.8876 412.131 43.1357 422.79 43.1357C431.414 43.1357 437.906 48.7558 438.1 58.7364C438.1 60.5775 436.549 62.2248 434.611 62.2248ZM459.417 75.8876H456.995C450.212 75.8876 446.239 72.8837 446.239 62.3217V51.3721H443.914C441.782 51.3721 439.941 49.4341 439.941 47.3023C439.941 44.9768 441.879 43.1357 443.914 43.1357H446.239V34.7054C446.239 32.1861 448.177 30.1512 450.697 30.1512C453.119 30.1512 455.154 32.1861 455.154 34.7054V43.1357H458.836C460.968 43.1357 462.809 44.9768 462.809 47.3023C462.809 49.4341 460.871 51.3721 458.836 51.3721H455.154V60.5775C455.154 66.6822 455.445 67.9419 458.158 67.9419H459.417C461.549 67.9419 463.39 69.686 463.39 71.9147C463.39 74.0465 461.549 75.8876 459.417 75.8876ZM502.538 33.4457C503.7 34.124 504.766 35.7713 504.766 37.2248C504.766 39.5504 502.828 41.4884 500.6 41.4884C500.018 41.4884 499.534 41.2946 499.049 41.1977C496.433 39.2597 493.138 38 489.65 38C481.414 38 475.793 44.6861 475.793 53.0194C475.793 61.3527 481.51 67.9419 489.65 67.9419C493.72 67.9419 497.402 66.2946 500.115 63.6783C500.793 63.1938 501.665 62.9031 502.538 62.9031C504.766 62.9031 506.51 64.6473 506.51 66.876C506.51 68.3294 505.638 69.5891 504.572 70.2674C500.6 73.6589 495.27 75.8876 489.747 75.8876C477.15 75.8876 466.879 65.5194 466.879 52.7287C466.879 39.938 477.15 29.5698 489.747 29.5698C494.398 29.4729 498.952 30.9264 502.538 33.4457ZM525.115 67.9419C529.088 67.9419 532.479 64.3566 532.479 59.5116C532.479 54.6667 528.991 51.469 525.115 51.469C521.142 51.469 518.041 54.7636 518.041 59.5116C518.041 64.1628 521.239 67.9419 525.115 67.9419ZM534.611 72.0116L534.417 70.9457C532.673 74.3372 527.15 75.8876 523.661 75.8876C515.328 75.8876 509.127 68.3295 509.127 59.3178C509.127 50.4031 515.425 43.0387 524.146 43.0387C525.599 43.0387 530.638 43.4264 534.514 47.9806L534.708 46.9147C534.708 44.9767 536.161 43.4264 538.099 43.4264C540.037 43.4264 541.588 45.0736 541.588 46.9147V71.9147C541.588 73.8527 540.037 75.4031 538.099 75.4031C536.065 75.5 534.611 73.8527 534.611 72.0116ZM565.909 67.9419C569.882 67.9419 572.983 64.1628 572.983 59.5116C572.983 54.6667 569.785 51.469 565.909 51.469C561.937 51.469 558.545 54.6667 558.545 59.5116C558.545 64.3566 561.937 67.9419 565.909 67.9419ZM558.545 73.2713V84.6085C558.545 87.1279 556.51 89.1628 554.088 89.1628C551.665 89.1628 549.63 87.1279 549.63 84.6085V47.0116C549.63 45.0736 551.181 43.5232 553.119 43.5232C555.057 43.5232 556.51 45.1705 556.51 47.3992C559.805 44.0077 563.875 43.1357 566.975 43.1357C575.599 43.1357 581.995 50.4031 581.995 59.4147C581.995 68.3295 575.89 75.9845 567.46 75.9845C564.844 75.8876 560.968 75.1124 558.545 73.2713Z" fill="#4F4F4F"/>
</svg>
