<svg width="383" height="100" viewBox="0 0 383 100" fill="none" xmlns="http://www.w3.org/2000/svg">
<path d="M36.885 9.32174H45.2525C50.3482 8.57103 55.5522 9.23106 60.2992 11.2301C66.2547 14.8132 70.5743 20.5815 72.3366 27.3046C73.5844 30.8278 73.5844 30.8278 76.5937 29.58H78.9425V1.68819H0.1857V6.60595H3.41524C4.81866 6.59623 6.20643 6.90106 7.47659 7.49804C8.74675 8.09502 9.86702 8.96899 10.7551 10.0557C13.7645 14.9001 14.2782 20.3317 14.2782 48.5905C14.2782 78.6109 13.6177 85.9508 10.7551 89.6942C10.0484 90.6565 9.13349 91.4468 8.0786 92.006C7.02371 92.5653 5.85613 92.879 4.66302 92.9238C0.1857 93.7311 0.1857 93.6577 0.1857 95.6395C-0.0618999 96.3022 -0.0618999 97.032 0.1857 97.6947H49.8766C50.2055 97.0464 50.3768 96.3298 50.3768 95.6028C50.3768 94.8759 50.2055 94.1592 49.8766 93.511C48.6731 93.1761 47.4464 92.9308 46.2067 92.777C44.8655 92.6175 43.5398 92.3474 42.2432 91.9696C40.3863 90.6139 38.9153 88.7972 37.9756 86.6989C37.0359 84.6007 36.66 82.2935 36.885 80.0054C36.1511 75.1611 35.7841 66.2797 35.7841 58.9398V53.1412H38.72C42.3779 53.0293 46.0336 53.4245 49.583 54.3156C51.2834 55.3664 52.7309 56.7797 53.822 58.4545C54.9132 60.1293 55.6211 62.0243 55.8953 64.0044L56.5559 66.2797H61.0332V33.7638H56.9229L56.2623 36.9199C55.9844 38.9448 55.2353 40.8762 54.0753 42.5589C52.9152 44.2416 51.3766 45.6287 49.583 46.6087C47.8461 47.1256 46.0161 47.2509 44.2249 46.9757H35.7841V39.0485C35.7841 30.8278 36.2245 13.5055 36.5181 10.7897L36.885 9.32174ZM380.391 67.5275C376.922 61.9434 371.51 57.8391 365.197 56.0038C360.358 54.491 355.884 51.9919 352.059 48.6639C351.198 47.8313 350.554 46.8007 350.183 45.662C349.812 44.5234 349.725 43.3112 349.93 42.1313C349.936 39.8169 350.86 37.5994 352.499 35.9658C353.61 34.8021 355.017 33.9621 356.568 33.5354C358.119 33.1088 359.757 33.1116 361.307 33.5436C364.516 34.4581 367.418 36.2235 369.705 38.6527C371.992 41.082 373.579 44.0847 374.299 47.3427C375.473 50.6457 375.62 50.6457 377.749 49.7649L379.07 49.2511V30.9746L378.116 30.5342C370.89 27.9963 363.224 26.9476 355.582 27.4514C349.001 27.6182 342.719 30.2357 337.966 34.7914C335.811 36.809 334.123 39.2735 333.02 42.0121C331.917 44.7507 331.426 47.6973 331.581 50.6456C331.622 55.1533 333.411 59.4689 336.572 62.6832C340.065 66.1183 344.35 68.6393 349.05 70.0231C360.426 74.5005 363.729 77.3631 363.729 82.5744C363.778 84.7721 363.078 86.921 361.744 88.6683C360.411 90.4156 358.522 91.6574 356.39 92.1898C353.827 92.7528 351.172 92.7528 348.609 92.1898C345.254 90.8874 342.258 88.8026 339.87 86.1088C337.483 83.4151 335.773 80.1902 334.884 76.7025L333.93 74.3537H332.608C331.977 74.4006 331.357 74.5493 330.773 74.7941H330.039V95.6395H331.287C336.246 97.2891 341.362 98.4206 346.554 99.0159H353.894C357.077 99.2495 360.277 98.9519 363.362 98.1351C367.28 97.4123 370.939 95.677 373.978 93.1017C377.017 90.5264 379.329 87.2008 380.685 83.4552C381.56 81.3632 382.01 79.1173 382.006 76.8493C382.295 73.6541 381.738 70.4392 380.391 67.5275ZM311.249 29.58C306.851 27.7333 302.112 26.8375 297.343 26.9514C292.574 27.0652 287.883 28.1862 283.578 30.2406C279.531 32.2201 275.945 35.0261 273.049 38.4776C270.154 41.929 268.015 45.9492 266.77 50.2787C265.182 55.0015 264.51 59.9838 264.788 64.9585C264.735 67.6652 264.957 70.3703 265.449 73.0325C266.634 79.5783 269.794 85.6046 274.504 90.3019C279.215 94.9992 285.25 98.1424 291.799 99.3095C296.063 99.8468 300.379 99.8468 304.643 99.3095C309.069 98.5295 313.304 96.9101 317.121 94.5385C320.279 92.7685 322.951 90.2475 324.902 87.1986C324.776 86.7202 324.556 86.2721 324.253 85.881C323.95 85.49 323.572 85.1642 323.14 84.9232C322.302 85.2266 321.512 85.6466 320.791 86.171C317.14 88.5771 312.829 89.7831 308.46 89.6208C305.56 89.8168 302.653 89.3653 299.949 88.2989C297.245 87.2325 294.812 85.578 292.826 83.4552C291.29 82.0285 290.022 80.3381 289.083 78.4641C286.802 73.901 285.573 68.8847 285.486 63.7842V60.9216H326.149V59.4536C326.239 57.987 326.239 56.5162 326.149 55.0496C326.135 49.8669 324.748 44.7804 322.131 40.3069C319.514 35.8335 315.76 32.1325 311.249 29.58ZM290.771 54.9762H285.633V50.6456C287.321 39.5623 291.505 32.9564 296.643 32.9564C301.781 32.9564 303.983 39.4889 304.937 51.453V54.8294H300.533L290.771 54.9762ZM185.224 27.1578C182.688 27.0595 180.166 27.5889 177.884 28.6992C172.923 31.1084 168.916 35.1153 166.507 40.0761L165.553 41.8377V27.1578H165.186C164.305 27.1578 137.148 32.5894 136.267 32.9564C135.386 33.3234 135.68 33.3968 135.68 34.718C135.68 36.0392 135.68 36.2594 136.267 36.3328L139.129 36.9199C139.931 36.9396 140.718 37.1415 141.43 37.5103C142.142 37.8791 142.761 38.4051 143.24 39.0485C145.075 41.4707 145.442 45.7279 145.442 63.8576C145.804 72.0193 145.46 80.1971 144.414 88.2996C144.168 89.5213 143.548 90.6365 142.641 91.4911C141.734 92.3457 140.584 92.8975 139.35 93.0706L136.854 93.5844H135.9V95.6395C135.634 96.3241 135.634 97.0836 135.9 97.7681H176.93V95.6395C177.072 94.9371 177.072 94.2133 176.93 93.511C174.459 93.4147 172.003 93.0953 169.59 92.5568C168.276 91.8695 167.201 90.8003 166.507 89.4901C165.812 88.1798 165.531 86.69 165.7 85.2168C165.113 80.9596 164.819 68.4817 164.966 58.9398C165.113 49.3979 164.966 48.8107 165.773 48.1501C168.229 46.2669 171.269 45.3057 174.361 45.4343C177.276 45.4978 180.137 46.2259 182.728 47.5629C183.626 48.0616 184.59 48.4322 185.591 48.6639C185.591 48.6639 192.931 30.9012 192.931 30.0938C191.991 29.0023 190.795 28.1622 189.449 27.6496C188.103 27.137 186.651 26.9679 185.224 27.1578ZM135.753 57.9856C135.497 52.7405 133.991 47.6326 131.361 43.0873C128.731 38.5421 125.053 34.6912 120.633 31.8554C115.381 29.0218 109.537 27.4594 103.571 27.2937C97.6054 27.1279 91.684 28.3635 86.2824 30.9012C78.6452 34.9285 72.8788 41.7745 70.2081 49.9851C67.4495 59.1777 67.4495 68.9778 70.2081 78.1705C71.6542 83.1944 74.3572 87.7668 78.0617 91.4558C82.6755 95.9578 88.6247 98.8423 95.0168 99.6765C99.12 100.02 103.245 100.02 107.348 99.6765C108.858 99.4468 110.353 99.1282 111.825 98.7223C117.8 97.0511 123.174 93.7129 127.321 89.0984C131.467 84.4839 134.214 78.784 135.239 72.6655C135.972 67.808 136.144 62.8824 135.753 57.9856ZM105.219 94.6853C97.8794 96.8873 92.3745 89.7676 90.5395 74.7941C89.8656 66.9548 89.8656 59.0721 90.5395 51.2328C92.0075 39.1953 95.7508 33.1032 101.549 33.1032C102.719 33.0307 103.889 33.2394 104.962 33.7119C106.035 34.1844 106.979 34.9069 107.715 35.819C112.632 40.7367 115.055 50.4989 115.055 65.1787C115.665 73.4867 114.36 81.824 111.238 89.5474C109.86 91.7999 107.727 93.4905 105.219 94.3183V94.6853ZM237.337 28.6258C235.266 28.3593 233.169 28.3593 231.098 28.6258C227.122 28.6224 223.192 29.4735 219.574 31.1214L217.299 32.0756V16.1479C217.697 10.7726 217.697 5.37529 217.299 0C216.418 0 188.38 5.35816 187.94 5.57836C187.723 6.12027 187.723 6.72464 187.94 7.26655C187.94 8.80794 187.94 8.73454 191.243 9.46853C192.17 9.67651 193.061 10.0229 193.885 10.4961C195.318 11.8434 196.271 13.6218 196.601 15.5607C197.436 21.1466 197.707 26.8024 197.408 32.4426V96.8873L199.39 97.3277C202.326 97.9883 210.62 99.3829 213.336 99.6765C218.758 100.108 224.207 100.108 229.63 99.6765C235.649 99.0617 241.387 96.816 246.224 93.1815C251.061 89.5471 254.815 84.6615 257.081 79.0512C258.432 75.4505 259.368 71.7074 259.87 67.8945C260.307 62.7298 260.135 57.5316 259.356 52.4072C258.569 46.6631 256.034 41.3002 252.095 37.046C248.156 32.7918 243.003 29.8521 237.337 28.6258ZM218.106 93.4375C218.106 92.4834 217.372 60.3344 217.519 47.4895V37.4337L219.648 36.9199C221.084 36.7142 222.542 36.7142 223.978 36.9199C225.567 36.7584 227.164 37.1192 228.529 37.9475C231.27 39.8393 233.546 42.3283 235.186 45.227C236.826 48.1257 237.788 51.3587 237.997 54.6826C238.532 60.0274 238.532 65.4123 237.997 70.7571C237.558 78.5254 234.565 85.9309 229.483 91.8228C228.041 93.1928 226.229 94.1112 224.272 94.4651C222.791 94.7228 221.276 94.7228 219.795 94.4651C218.4 94.4651 218.4 94.0247 218.4 93.4375H218.106Z" fill="#4F4F4F"/>
</svg>
