<svg width="501" height="501" viewBox="0 0 501 501" fill="none" xmlns="http://www.w3.org/2000/svg">
<path d="M128.314 468.494L128.3 468.514L125.536 466.917L122.792 465.331L122.802 465.314C67.34 432.372 27.4356 380.342 9.96315 318.23L9.94942 318.256L9.12907 315.198L9.1023 315.185L8.30233 312.11L8.31593 312.083C-7.63885 250.004 1.03079 184.16 32.511 128.327L32.4906 128.314L34.0905 125.541L35.6768 122.797L35.6939 122.808C68.6621 67.3462 120.671 27.4336 182.752 9.95179L185.818 9.10506L185.855 9.09729L188.916 8.28053L188.888 8.32492C251.419 -7.60409 316.427 0.946648 372.682 32.5137L372.699 32.4871L375.443 34.0729L378.208 35.6698L378.194 35.6965C433.397 68.2954 473.834 121.002 491.025 182.765L491.072 182.73L491.889 185.789L491.899 185.82L492.695 188.898L492.678 188.887C508.596 251.405 500.064 316.414 468.493 372.688L468.52 372.7L466.934 375.448L465.334 378.219L465.31 378.203C432.706 433.4 380 473.83 318.242 491.02L318.246 491.057L315.184 491.9L315.164 491.887L312.106 492.706L312.102 492.671C291.822 497.854 270.974 500.484 250.043 500.5C207.39 500.471 165.465 489.448 128.314 468.494ZM310.237 461.129L316.587 484.895C376.721 468.139 428.038 428.763 459.79 375.016L438.464 362.706C409.96 410.775 364.041 446.022 310.237 461.129ZM25.5754 314.083L16.1006 316.579C33.1094 377.061 71.9945 427.704 125.982 459.808L138.302 438.467C90.2289 409.962 54.9803 364.038 39.874 310.229L25.5754 314.083ZM105.202 399.615C143.312 436.969 194.4 458.125 247.761 458.648V437.603C199.984 437.046 154.256 418.108 120.074 384.722L105.202 399.615ZM122.006 122.001L121.722 122.279C87.7664 156.379 68.7256 202.557 68.7775 250.68C68.8293 298.803 87.9695 344.94 121.998 378.967V378.99C156.047 413.022 202.208 432.154 250.348 432.185C298.488 432.216 344.673 413.144 378.766 379.155L378.975 378.967C413.286 344.61 432.195 299.031 432.195 250.491C432.193 214.553 421.535 179.423 401.569 149.543C381.602 119.662 353.225 96.3733 320.023 82.6204C286.822 68.8675 250.288 65.2679 215.041 72.2777C179.795 79.2874 147.419 96.5915 122.006 122.001ZM384.723 380.893L399.626 395.783C436.965 357.648 458.127 306.561 458.69 253.192H437.602C437.045 300.973 418.109 346.705 384.723 380.892V380.893ZM42.3211 247.772H63.3605C63.9175 199.999 82.8495 154.276 116.227 120.093L107.278 111.124L101.381 105.183C64.0192 143.302 42.8548 194.398 42.3211 247.772ZM362.692 62.5398C410.77 91.0383 446.024 136.962 461.13 190.773L484.907 184.403C467.868 123.93 429.023 73.2739 375.022 41.183L362.692 62.5398ZM41.1972 125.986L62.5305 138.303C91.0419 90.234 136.966 54.9883 190.774 39.8802L184.398 16.0997C124.27 32.8723 72.9579 72.2477 41.1967 125.988L41.1972 125.986ZM253.202 63.3565C300.972 63.9325 346.689 82.8692 380.875 116.241L395.781 101.348C357.656 64.0054 306.566 42.8563 253.202 42.3271V63.3565ZM217.23 412.203C196.118 407.876 176.064 399.437 158.211 387.366C131.674 369.452 110.902 344.226 98.4111 314.745C94.1902 304.76 90.9688 294.383 88.7942 283.763C84.3205 261.812 84.3205 239.184 88.7942 217.233C93.1174 196.12 101.556 176.065 113.627 158.212C131.541 131.674 156.766 110.902 186.247 98.4119C196.231 94.1889 206.609 90.9665 217.23 88.7916C239.18 84.3216 261.806 84.3216 283.756 88.7916C304.868 93.1182 324.923 101.558 342.776 113.629C369.313 131.544 390.086 156.77 402.579 186.25C406.798 196.236 410.02 206.613 412.196 217.233C416.665 239.184 416.665 261.812 412.196 283.763C407.873 304.876 399.434 324.931 387.359 342.783C369.446 369.321 344.221 390.094 314.74 402.584C304.755 406.806 294.377 410.028 283.757 412.204C261.806 416.673 239.181 416.673 217.23 412.204V412.203ZM287.447 277.459V357.05L351.715 357.054V143.718L287.447 143.714V222.715H213.659V143.718L149.393 143.714V357.05L213.659 357.054V277.459H287.447Z" fill="#9DFF12"/>
</svg>
