<svg width="575" height="550" viewBox="0 0 575 550" fill="none" xmlns="http://www.w3.org/2000/svg">
<path d="M151.841 510.413L151.81 510.442L148.847 508.72L145.895 506.98C86.3723 471.787 42.7695 414.845 24.2368 348.14V348.17L23.3407 344.863H23.3031L22.4446 341.532C5.25752 274.482 14.5993 203.356 48.518 143.045H48.488L50.2463 140.069L51.9442 137.116H51.9708C87.126 77.5055 143.931 33.8237 210.501 15.2096L213.792 14.3005H213.845L217.143 13.4255L217.124 13.4519C284.055 -3.7989 355.05 5.568 415.24 39.59L415.27 39.556L418.208 41.291L421.22 43.0185L421.185 43.0412C480.695 78.2322 524.288 135.142 542.823 201.831L542.86 201.805L543.755 205.109V205.166L544.64 208.481L544.605 208.462C561.825 275.518 552.482 346.647 518.53 406.957L518.552 406.985L516.855 409.925L515.137 412.943L515.08 412.925C479.94 472.538 423.125 516.207 356.545 534.777L353.26 535.703H353.233L349.93 536.6V536.55C328.075 542.147 305.605 544.985 283.048 545C237.072 544.955 191.883 533.043 151.841 510.413ZM347.965 502.458L354.78 528.14C419.6 510.02 474.915 467.493 509.15 409.455L486.142 396.155C455.425 448.065 405.955 486.125 347.965 502.458ZM41.0555 343.645L30.8485 346.36C48.9175 411.31 91.367 466.74 149.31 501.043L162.582 477.987C110.763 447.195 72.762 397.605 56.4587 339.5L41.0555 343.645ZM126.9 436.023C167.99 476.373 223.071 499.23 280.608 499.81V477.09C229.101 476.475 179.807 456.022 142.951 419.975L126.9 436.023ZM145.026 136.256L144.709 136.573C108.116 173.4 87.597 223.262 87.6535 275.225C87.71 327.185 108.337 377.002 145.011 413.75V413.785C181.714 450.542 231.479 471.21 283.38 471.247C335.28 471.285 385.075 450.688 421.83 413.98L422.045 413.75C458.777 376.95 479.415 327.04 479.413 275C479.413 222.958 458.775 173.048 422.04 136.25C385.305 99.4522 335.48 78.78 283.53 78.781C231.581 78.782 181.759 99.4563 145.026 136.256ZM428.237 415.828L444.285 431.905C484.545 390.74 507.36 335.58 507.968 277.955H485.25C484.642 329.54 464.225 378.928 428.237 415.828ZM59.1095 272.04H81.8093C82.418 220.449 102.833 171.074 138.817 134.163L129.126 124.507L122.8 118.095C82.5288 159.25 59.7065 214.412 59.1095 272.04ZM404.48 72.0158C456.31 102.782 494.318 152.366 510.61 210.469L536.245 203.6C518.15 138.671 475.703 83.2625 417.775 48.959L404.48 72.0158ZM57.9195 140.522L80.8868 153.817C111.633 101.919 161.132 63.8612 219.127 47.5295L212.256 21.8818C147.449 39.9837 92.1445 82.4968 57.9195 140.522ZM286.462 72.917C337.97 73.516 387.27 93.9585 424.13 130.003L440.15 113.95C399.06 73.6115 343.987 50.756 286.46 50.166L286.462 72.917ZM244.331 453.783C241.91 445.833 239.481 437.915 237.666 429.75C236.537 424.718 235.55 419.675 234.654 414.587C233.721 409.117 233.284 403.385 232.019 397.992C231.992 397.94 231.992 397.915 231.943 397.9C231.986 397.828 232.011 397.745 232.017 397.657C232.022 397.572 232.007 397.485 231.974 397.408C231.941 397.328 231.89 397.257 231.825 397.2C231.761 397.145 231.684 397.105 231.601 397.082C222.147 394.315 212.869 390.61 203.675 387.092C194.245 383.52 185.024 379.415 176.058 374.795C158.112 365.373 141.321 353.89 126.023 340.582C121.628 336.81 117.337 332.855 113.15 328.715C111.245 326.827 109.362 324.93 107.502 323.02C100.492 298.085 98.561 271.99 101.824 246.293C103.632 246.747 105.319 247.59 106.768 248.763L107.178 249.072C109.204 243.038 113.086 240.397 118.169 241.684C117.825 239.587 117.807 237.449 118.116 235.347C120.202 225.197 129.675 216.187 136.588 209.605L136.78 209.405C142.119 204.514 147.803 200.014 153.787 195.94C161.994 189.867 169.383 182.758 175.772 174.788C178.92 170.722 181.812 166.463 184.431 162.036C186.898 158.064 187.7 155.186 184.898 151.366C183.033 148.917 180.706 146.859 178.05 145.308C177.595 145.14 177.152 144.943 176.724 144.716C176.153 144.439 175.599 144.125 175.068 143.777C173.22 142.951 171.283 142.342 169.296 141.963C165.666 141.208 160.941 141.359 159.318 146.112C155.783 156.831 161.031 170.715 166.095 180.434L164.725 181.249C158.042 172.332 154.207 161.6 153.723 150.46C153.608 148.319 153.929 146.176 154.666 144.163C155.402 142.149 156.539 140.306 158.008 138.745C159.664 137.362 161.637 136.412 163.75 135.981C167.996 133.069 172.789 131.052 177.837 130.05C182.885 129.048 188.083 129.084 193.118 130.153C196.315 130.961 199.432 132.057 202.432 133.427C208.238 135.86 213.705 138.176 220.81 136.007C223.715 134.979 226.473 133.571 229.01 131.821C229.425 131.575 229.82 131.334 230.215 131.104C245.509 121.822 263.62 120.92 280.927 120.803H282.057C300.437 120.713 328.205 120.573 343.165 133.25L343.232 133.291C349.73 140.296 352.775 138.297 357.835 134.951C360.64 132.9 363.768 131.334 367.09 130.316C376.685 128.577 386.578 129.603 395.618 133.273C395.838 133.302 396.05 133.379 396.237 133.499C396.43 133.571 396.615 133.65 396.825 133.733C397.3 133.834 397.767 133.968 398.222 134.136C398.532 134.266 398.803 134.476 399.008 134.744C399.21 135.012 399.34 135.33 399.382 135.664C402.312 135.789 405.125 136.86 407.398 138.719C408.863 140.282 410 142.125 410.738 144.138C411.475 146.151 411.8 148.292 411.695 150.434C411.21 161.582 407.37 172.322 400.677 181.242L399.36 180.427C404.34 170.681 409.607 156.816 406.07 146.104C404.44 141.329 399.775 141.201 396.105 141.955C389.95 143.1 384.415 146.44 380.525 151.358C377.745 155.19 378.56 158.06 381.013 162.002C383.628 166.428 386.52 170.685 389.672 174.747C396.045 182.754 403.45 189.878 411.695 195.932C417.66 200.013 423.33 204.512 428.66 209.398L428.883 209.628C435.783 216.202 445.225 225.194 447.293 235.275C447.623 237.401 447.615 239.565 447.27 241.687C447.345 241.649 447.428 241.628 447.51 241.627C452.505 240.496 456.265 243.136 458.257 249.076C458.397 248.955 458.547 248.844 458.705 248.744C459.39 248.205 460.123 247.733 460.895 247.334C462.52 246.445 464.352 246.012 466.202 246.078C467.257 254.27 467.795 262.52 467.81 270.78C467.828 288.65 465.325 306.433 460.378 323.603C454.598 329.508 448.617 335.258 442.415 340.575C427.12 353.885 410.33 365.367 392.383 374.787C383.413 379.4 374.19 383.505 364.762 387.085C355.56 390.603 346.313 394.308 336.805 397.075C336.743 397.09 336.683 397.115 336.628 397.152C336.575 397.19 336.53 397.237 336.495 397.292C336.46 397.347 336.435 397.41 336.425 397.475C336.412 397.538 336.415 397.605 336.43 397.668C336.36 397.69 336.3 397.73 336.252 397.787C336.205 397.845 336.178 397.913 336.17 397.985C334.845 403.36 334.4 409.093 333.492 414.58C332.607 419.668 331.61 424.715 330.48 429.742C328.693 437.772 326.31 445.552 323.948 453.365L323.865 453.743C297.678 459.673 270.503 459.68 244.312 453.765L244.331 453.783ZM300.367 317.3C303.35 317.303 306.29 316.565 308.917 315.15C316.29 311.382 322.923 306.31 328.495 300.18C328.86 300.363 329.24 300.517 329.625 300.647C333.035 301.865 336.715 302.115 340.258 301.365L342.3 300.872L340.45 299.855C337.625 298.395 334.672 297.195 331.63 296.272L331.02 295.933L330.16 295.645C329.47 295.255 328.87 294.727 328.39 294.095C327.495 292.807 326.762 291.415 326.207 289.948L325.415 288.182L324.75 290.015C324.31 291.275 324.17 292.617 324.34 293.94C324.51 295.265 324.985 296.53 325.725 297.638C322.635 299.055 319.602 300.597 316.66 302.122L314.5 303.253C313.137 303.913 311.783 304.682 310.488 305.365C308.055 306.83 305.495 308.07 302.84 309.07C300.157 309.895 297.31 310.04 294.557 309.492C291.107 308.767 287.775 307.57 284.65 305.935C284.445 305.83 284.26 305.685 284.11 305.507C283.96 305.33 283.848 305.123 283.78 304.9C283.713 304.678 283.692 304.442 283.717 304.212C283.745 303.98 283.817 303.758 283.932 303.555C283.297 303.883 282.595 304.055 281.88 304.055C281.165 304.055 280.462 303.883 279.827 303.555C279.95 303.755 280.03 303.98 280.06 304.212C280.09 304.445 280.07 304.68 280.002 304.905C279.935 305.13 279.82 305.338 279.667 305.515C279.515 305.693 279.325 305.835 279.113 305.935C276.005 307.568 272.683 308.755 269.245 309.465C266.47 310.035 263.6 309.897 260.893 309.07C258.265 308.047 255.728 306.81 253.308 305.365C251.98 304.682 250.588 303.913 249.248 303.253L247.139 302.155C244.097 300.602 240.946 298.98 237.7 297.47C238.397 296.377 238.838 295.14 238.991 293.855C239.144 292.565 239.006 291.26 238.585 290.033L237.922 288.2L237.143 289.965C236.577 291.418 235.839 292.798 234.944 294.073C234.505 294.67 233.962 295.18 233.34 295.583L232.045 296.165L231.774 296.257C228.712 297.205 225.734 298.41 222.873 299.86L221.028 300.877L223.069 301.367C226.609 302.12 230.287 301.87 233.694 300.65C234.2 300.493 234.686 300.277 235.144 300.01C240.725 306.252 247.418 311.403 254.88 315.19C257.502 316.575 260.423 317.298 263.385 317.3C267.068 317.17 270.668 316.165 273.885 314.365C277.103 312.565 279.845 310.025 281.888 306.953C283.92 310.03 286.658 312.575 289.873 314.375C293.088 316.175 296.685 317.178 300.367 317.3ZM276.522 269.25C273.745 269.893 271.325 271.585 269.765 273.973C268.732 275.468 268.08 277.19 267.863 278.993C267.645 280.795 267.865 282.625 268.51 284.323C268.935 285.033 269.523 285.63 270.225 286.068C270.925 286.505 271.72 286.77 272.543 286.84C273.718 287.09 274.855 287.49 275.93 288.022C278.22 289.525 279.895 291.8 280.65 294.435C281.44 296.303 282.155 298.055 283.72 298.055H283.853C285.36 298 286.068 296.365 286.693 294.695C287.403 292.577 288.642 290.675 290.29 289.17C291.575 288.135 293.14 287.51 294.782 287.378C295.605 287.358 296.408 287.138 297.125 286.735C297.843 286.333 298.45 285.76 298.895 285.07C299.713 283.05 299.985 280.853 299.69 278.695C299.393 276.538 298.535 274.495 297.205 272.775C295.792 270.808 293.733 269.403 291.388 268.805C290.21 268.473 288.962 268.457 287.775 268.76C286.495 268.987 285.205 269.14 283.905 269.215C282.558 269.288 281.205 269.245 279.862 269.08C279.43 269.025 278.995 268.995 278.56 268.99C277.872 268.985 277.187 269.073 276.522 269.25ZM357.85 227.189C353.53 227.37 349.3 228.49 345.455 230.471C341.608 232.452 338.238 235.247 335.578 238.662C332.793 242.057 325.288 251.055 326.758 258.805C328.358 267.162 339.39 268.528 346.425 268.528C348.77 268.528 350.65 268.37 351.62 268.285C358.283 267.7 364.655 265.302 370.058 261.355C375.458 257.405 379.68 252.055 382.265 245.878C383.122 243.693 383.408 241.325 383.095 238.998C382.04 233.061 376.295 231.251 370.24 229.342C366.75 227.999 363.057 227.259 359.32 227.155C358.85 227.155 358.348 227.174 357.85 227.189ZM198.325 229.342C192.27 231.251 186.506 233.061 185.482 238.998C185.154 241.325 185.442 243.697 186.318 245.878C188.899 252.045 193.112 257.392 198.503 261.337C203.894 265.282 210.259 267.68 216.909 268.267C217.873 268.35 219.729 268.508 222.105 268.508C229.123 268.508 240.178 267.143 241.785 258.785C243.239 251.038 235.761 242.053 232.937 238.644C230.281 235.231 226.915 232.439 223.073 230.462C219.231 228.484 215.005 227.369 210.689 227.193C210.162 227.193 209.684 227.159 209.217 227.159C205.486 227.266 201.811 228.004 198.325 229.342ZM263.48 258.43L261.197 261.372L264.462 259.63C270.825 256.16 277.995 254.46 285.235 254.708C292.387 254.128 299.545 255.78 305.72 259.44L309 261.328L306.74 258.267C304.185 255.045 300.86 252.515 297.073 250.915C293.285 249.315 289.157 248.694 285.07 249.11C284.78 249.11 284.46 249.08 284.125 249.08C280.2 248.982 276.305 249.772 272.73 251.39C269.155 253.01 265.997 255.415 263.48 258.43ZM308.51 213.897C307.702 215.351 307.207 216.958 307.057 218.616C306.905 219.957 307.022 221.316 307.402 222.612C307.782 223.907 308.418 225.113 309.27 226.159C312.12 229.41 316.13 231.409 320.435 231.722C321.06 231.786 321.69 231.811 322.318 231.798C326.455 231.669 330.548 230.873 334.435 229.441C338.343 228.054 342.093 226.25 345.615 224.058C347.318 223.085 348.915 222.172 350.51 221.331C355.725 218.886 361.24 217.148 366.913 216.164L372.44 215.085L366.79 214.538C360.645 214.015 354.46 214.845 348.67 216.971C346.258 217.942 343.9 219.039 341.602 220.256C338.742 221.752 335.775 223.037 332.728 224.1C327.795 226.326 322.3 226.992 316.98 226.008C315.768 225.793 314.61 225.338 313.575 224.671C312.543 224.003 311.65 223.136 310.955 222.12C310.287 220.97 309.857 219.699 309.687 218.38C309.517 217.061 309.61 215.722 309.965 214.44L311.12 209.069L308.51 213.897ZM201.755 214.554L196.107 215.1L201.687 216.145C207.359 217.133 212.876 218.871 218.092 221.312C219.692 222.157 221.254 223.063 222.956 224.039C226.48 226.237 230.233 228.041 234.15 229.418C238.027 230.85 242.109 231.646 246.24 231.775C246.868 231.789 247.497 231.764 248.122 231.7C252.433 231.388 256.445 229.389 259.297 226.137C260.152 225.093 260.79 223.887 261.165 222.59C261.542 221.294 261.655 219.934 261.492 218.593C261.35 216.937 260.863 215.33 260.06 213.875L257.455 209.051L258.612 214.421C258.972 215.701 259.073 217.041 258.905 218.361C258.738 219.68 258.305 220.952 257.638 222.101C256.935 223.125 256.037 223.999 254.995 224.672C253.952 225.345 252.788 225.805 251.568 226.023C246.253 227.006 240.766 226.341 235.84 224.115C232.79 223.066 229.825 221.781 226.973 220.271C224.677 219.14 222.346 217.929 219.869 217.001C215.228 215.305 210.328 214.43 205.388 214.418C204.149 214.403 202.957 214.444 201.755 214.554ZM373.202 148.925C373.202 149.125 373.135 149.302 373.135 149.495C373.267 149.221 373.418 148.957 373.583 148.703C373.458 148.779 373.335 148.863 373.202 148.925ZM240.294 145.832C240.679 145.893 241.057 145.989 241.424 146.119L241.605 146.025C241.721 145.704 241.842 145.41 241.981 145.086C241.394 145.308 240.833 145.58 240.294 145.832ZM268.43 139.273C268.69 139.424 268.925 139.571 269.165 139.726C269.31 139.717 269.458 139.736 269.595 139.783C269.498 139.425 269.417 139.062 269.357 138.696C269.03 138.896 268.73 139.111 268.43 139.273ZM169.717 135.766C169.939 135.788 170.165 135.788 170.376 135.83C170.388 135.73 170.42 135.634 170.47 135.547C170.215 135.602 169.963 135.675 169.717 135.766ZM339.302 429.66C341.41 419.942 342.012 414.655 343.952 403.385C354.785 401.405 365.015 394.865 375.353 390.745C407.43 378.175 435.98 357.995 458.563 331.94C439.903 391.935 392.42 438.23 333.315 452.712C335.77 445.16 337.63 437.33 339.302 429.66ZM109.294 331.935C131.884 357.99 160.446 378.17 192.53 390.74C202.869 394.857 213.076 401.397 223.943 403.377C225.859 414.652 226.476 419.935 228.589 429.653C230.253 437.325 232.124 445.17 234.56 452.7C175.437 438.22 127.947 391.927 109.294 331.935Z" fill="#9DFF12"/>
</svg>
